<?xml version="1.0" encoding="UTF-8" standalone="no"?>
<!-- Created with Inkscape (http://www.inkscape.org/) -->

<svg
   xmlns:dc="http://purl.org/dc/elements/1.1/"
   xmlns:cc="http://creativecommons.org/ns#"
   xmlns:rdf="http://www.w3.org/1999/02/22-rdf-syntax-ns#"
   xmlns:svg="http://www.w3.org/2000/svg"
   xmlns="http://www.w3.org/2000/svg"
   xmlns:sodipodi="http://sodipodi.sourceforge.net/DTD/sodipodi-0.dtd"
   xmlns:inkscape="http://www.inkscape.org/namespaces/inkscape"
   width="16"
   height="16"
   id="svg3360"
   version="1.1"
   inkscape:version="0.91 r13725"
   viewBox="0 0 16 16"
   sodipodi:docname="cviz.svg"
   inkscape:export-filename="/home/indomitable/Pictures/cviz.png"
   inkscape:export-xdpi="719.35168"
   inkscape:export-ydpi="719.35168">
  <defs
     id="defs3362" />
  <sodipodi:namedview
     id="base"
     pagecolor="#ffffff"
     bordercolor="#666666"
     borderopacity="1.0"
     inkscape:pageopacity="0.0"
     inkscape:pageshadow="2"
     inkscape:zoom="16.01"
     inkscape:cx="-3.5491045"
     inkscape:cy="6.7357901"
     inkscape:current-layer="layer1"
     showgrid="true"
     inkscape:grid-bbox="true"
     inkscape:document-units="px"
     showguides="false"
     inkscape:window-width="1920"
     inkscape:window-height="1013"
     inkscape:window-x="-6"
     inkscape:window-y="30"
     inkscape:window-maximized="1" />
  <metadata
     id="metadata3365">
    <rdf:RDF>
      <cc:Work
         rdf:about="">
        <dc:format>image/svg+xml</dc:format>
        <dc:type
           rdf:resource="http://purl.org/dc/dcmitype/StillImage" />
        <dc:title></dc:title>
      </cc:Work>
    </rdf:RDF>
  </metadata>
  <g
     id="layer1"
     inkscape:label="Layer 1"
     inkscape:groupmode="layer">
    <path
       style="fill:#d40000"
       id="path3496"
       d="m 4.9422934,1.6261751 c -0.026416,0.6268083 0.00317,1.2565844 0.054853,1.8802324 0.018641,0.155642 0.027454,0.3142468 0.06288,0.4659501 0.00524,0.022342 0.011248,0.044468 0.018761,0.065741 0.0036,0.010154 0.015256,0.039048 0.01436,0.027989 -0.00186,-0.023282 -0.011663,-0.04443 -0.017495,-0.066644 C 4.8744222,4.1340279 4.6942711,4.3409447 4.4719608,4.4031982 4.4117349,4.4200642 4.4760013,4.246817 4.4682478,4.1695206 4.453145,4.0181851 4.4334883,3.8670598 4.4036648,3.7192517 4.293902,3.1753233 4.1969761,2.8524651 3.9732243,2.3532132 3.870955,2.1250255 3.7452179,1.9149335 3.6312147,1.6957937 3.5254509,1.5316561 3.1493414,0.8401129 2.8965884,0.8206013 2.2573276,0.7712534 2.4485061,1.3750347 2.3182577,1.8464339 1.1163609,6.1963607 2.1400756,1.3359194 1.1928537,6.3634072 c -0.084961,1.3655679 -0.34189161,3.3495771 0.059341,4.7265478 0.1708896,0.586473 0.454699,1.180016 0.8707039,1.518451 0.4982505,0.405345 1.1237266,0.580534 1.7164012,0.586249 1.9960915,0.01925 3.3312638,-1.08218 5.0983508,-2.095227 2.3107734,-1.7760624 4.3670184,-3.9978607 6.2343064,-6.4580742 0.415884,-0.5479423 0.798818,-1.1343054 1.198227,-1.701458 0,0 0.366457,-0.1942751 0.366457,-0.1942751 l 0,0 C 16.307752,3.3292514 15.893649,3.930781 15.449977,4.4965131 14.295969,5.9680027 12.81024,7.7037798 11.511883,8.9287984 10.636817,9.7544773 9.7005446,10.471394 8.794853,11.242692 6.9946641,12.289623 5.550369,13.462494 3.5060957,13.484124 2.8927608,13.490624 2.2380378,13.327701 1.7241056,12.904927 1.3049098,12.56009 1.047948,11.929417 0.88830097,11.330669 0.52989121,9.9864753 0.781194,7.8852683 0.86350082,6.5639066 1.0360372,5.5321054 1.349062,3.1280715 1.8276187,2.1172832 2.109397,1.5221233 2.5198281,1.0299741 2.9382005,0.5808627 3.0737321,0.435374 3.2710544,0.3478291 3.4472535,0.378649 c 0.2425119,0.042418 0.6183047,0.7531004 0.721299,0.9202735 0.1149609,0.2219862 0.2391342,0.4367858 0.3448827,0.665959 0.2594439,0.5622544 0.459872,1.1606357 0.5785895,1.7943133 0.014721,0.078557 0.07333,0.1795454 0.030217,0.2391499 C 4.9484798,4.2385879 4.7074771,4.3845136 4.5000949,4.5775981 4.4860841,4.5602031 4.4699328,4.5451831 4.4580515,4.5254121 4.3886744,4.4099084 4.3985901,4.0440596 4.3790426,3.9126532 4.3450584,3.2904948 4.3288308,2.6668578 4.2915595,2.0448881 c 0,0 0.6507393,-0.4187127 0.6507393,-0.4187127 z"
       inkscape:connector-curvature="0" />
    <path
       style="fill:#d40000"
       id="path3504"
       d="M 4.7357306,7.1119082 C 4.7088756,7.4598795 4.5707656,7.7718273 4.3995244,8.0581043 4.1866969,8.3874347 4.0354513,8.4441089 3.6013751,8.6256077 3.5723456,8.6377421 3.5525829,8.5367012 3.5332067,8.4616415 3.5031168,8.2432866 3.5031441,8.0172552 3.545891,7.8005205 3.5732567,7.6617742 3.6332625,7.4807708 3.6743503,7.3478627 3.7592225,7.0745233 3.8675112,6.8107874 4.0162159,6.573138 4.29384,6.1962135 4.6028384,5.9888468 4.8104054,6.3365294 4.879464,6.4522066 4.9051227,6.5423806 4.9532863,6.6727245 5.0809351,7.1047936 5.1769288,7.6009341 5.1746428,8.0572153 5.1739716,8.191247 5.1601153,8.3247948 5.1528565,8.4585839 5.1323483,8.618955 5.1156101,8.7799784 5.09133,8.939696 5.0631165,9.1252846 5.0276343,9.3094176 4.995416,9.4942006 4.8951123,10.069472 4.7902244,10.643805 4.7030384,11.221757 c -0.0074,0.06574 -0.030464,0.131637 -0.022151,0.197247 0.00223,0.01742 0.060634,-0.01957 0.045052,-0.01656 -0.1156569,0.02231 -0.3573385,0.204484 -0.3457075,0.07456 0.019799,-0.221165 0.2630208,-0.335047 0.3847988,-0.511257 C 5.5726398,9.7971453 5.9062883,9.2012876 6.7185262,7.8767692 8.9766876,3.9767255 7.8635134,5.9636096 10.055005,1.9140087 c 0,0 0.08651,-0.042671 0.08651,-0.042671 l 0,0 C 8.0113994,5.8618599 9.0578286,3.9063481 7.0026678,7.7381554 6.6536495,8.35845 6.3093958,8.9820931 5.9556116,9.5990383 5.740709,9.9737963 5.5237148,10.347263 5.2967107,10.713086 5.1905441,10.884176 5.097332,11.0721 4.9566288,11.208935 4.7152067,11.443711 4.4444438,11.64251 4.1637095,11.81491 4.0884155,11.86115 4.018504,11.431459 4.1329015,11.529975 4.3083619,10.614135 4.5119701,9.7014693 4.5994044,8.7683339 4.6041644,8.6390038 4.6148344,8.5097788 4.6137494,8.3803447 4.6098965,7.9242853 4.5223363,7.4558132 4.3850273,7.027834 4.3371262,6.9094886 4.3107376,6.8226867 4.2406561,6.7211797 4.2217594,6.6938109 4.1989899,6.6694643 4.1742335,6.6486586 4.1609226,6.6374947 4.1145017,6.6371902 4.1282587,6.6266915 4.5740736,6.2866477 4.8860891,6.2185539 4.635769,6.2769045 4.4662258,6.5028317 4.3475317,6.7673233 4.2584227,7.0435245 4.221795,7.1616773 4.1582713,7.3553966 4.132621,7.4799556 4.090275,7.6856009 4.08769,7.8979853 4.122102,8.1048999 c 0.00568,0.023239 0.00862,0.047589 0.017143,0.069717 0.00304,0.00789 0.011223,0.011984 0.016828,0.01797 C 3.9723157,8.3129978 3.7885588,8.4334076 3.6048017,8.5538185 3.5870827,8.5655275 3.6436887,8.5365055 3.6597207,8.5220605 3.6872557,8.4972445 3.7794664,8.37139 3.7953917,8.350266 3.9713582,8.0848515 4.1197368,7.7908346 4.1334186,7.4532816 c 0,0 0.6023119,-0.3413733 0.6023119,-0.3413733 z"
       inkscape:connector-curvature="0" />
    <path
       id="path3647"
       style="fill:#000000"
       d="m 7.6894552,7.5480037 c 0.067129,-0.065855 0.1425562,-0.1246675 0.2038434,-0.1941626 0.1535422,-0.1833902 0.02588,-0.030491 -0.4036962,0.4542774 -0.00322,0.00364 0.0056,-0.00788 0.00971,-0.010883 0.016044,-0.0117 0.014708,-0.01644 0.021689,-0.034144 0.023931,-0.020523 0.013935,-0.043902 0.024019,-0.068993 0.014625,-0.02128 0.035163,-0.023011 0.025704,-0.049015 -0.015566,-0.026062 -0.036617,-0.042266 4.352e-4,-0.063983 0.00517,-0.021098 0.017018,-0.04015 0.021059,-0.062749 -0.086812,-0.2004056 -0.016264,-0.021558 0.4469967,-0.5193364 0.00433,-0.00463 0.01472,-0.00249 0.019399,-0.00684 0.00413,-0.00387 0.00752,-0.018828 0.00373,-0.014691 -0.4975987,0.5462412 -0.5883666,0.6306972 -0.4204459,0.4735506 0.00853,-0.00934 0.00293,-0.00573 0.017097,-0.01027 0,0 0.4979868,-0.466353 0.4979868,-0.466353 l 0,0 c 0.01099,0.020436 0.011449,0.011045 0.00645,0.027202 -0.077434,0.2063898 -0.010367,0.032362 -0.4521081,0.5168442 -0.00456,0.00497 -0.014222,0.00456 -0.020269,0.00832 -0.00446,0.00275 -0.013479,0.014326 -0.010231,0.010678 0.1430856,-0.1611198 0.291283,-0.3195127 0.4297674,-0.4830796 0.00381,-0.00446 -0.012597,-0.00148 -0.018899,-0.0022 -4.715e-4,0.021096 0.00574,0.055356 -0.012631,0.069479 0.013349,0.065601 -0.046132,0.010429 -0.034058,0.041969 0.012948,0.021546 0.047735,0.058946 0.023712,0.082537 -0.048264,0.041664 -0.017879,0.012425 -0.030912,0.064556 -0.023126,0.033033 -0.00741,0.010707 -0.012017,0.041558 -6.9e-4,0.00472 -0.00595,0.00849 -0.00948,0.012472 -0.4381389,0.4970024 -0.2915884,0.3447031 -0.4690666,0.528436 -0.066937,0.065506 -0.143109,0.1248569 -0.2053488,0.1935193 0,0 0.3475175,-0.5386969 0.3475175,-0.5386969 z M 6.7465387,10.175503 c 0.00611,-0.02118 0.00882,-0.04297 0.018221,-0.06354 C 6.8727928,9.8755853 7.3869949,9.4292403 7.4621233,9.3640056 7.5024893,9.3289576 7.5660211,9.3193855 7.6167047,9.2950887 7.6707527,9.2691764 7.7229991,9.2406645 7.7761474,9.2134617 7.7338304,9.3221176 8.1237587,8.896911 8.0383308,8.9770739 7.9249239,9.0834935 7.8451006,9.2153705 7.7113756,9.3049912 c -0.051109,0.034259 0.044329,-0.099611 0.061904,-0.1502811 0.028824,-0.083113 0.042107,-0.159272 0.059347,-0.2428301 0.064597,-0.2468663 0.048107,-0.2317098 0.4978931,-0.5651727 0.035924,-0.026632 0.078188,0.037026 0.1138352,0.05929 0.199438,0.1245978 0.089095,0.088918 0.3260956,0.2153514 0.069241,0.036934 0.1448476,0.066044 0.2172708,0.099067 0.1132207,0.032922 0.3220243,0.1101041 0.459474,0.088809 0.065927,-0.010211 0.2104752,-0.1322987 0.1777,-0.0837 -0.4760279,0.7058291 -0.2709634,0.1418845 -0.256759,0.016 0.010512,-0.093181 0.00466,-0.1860434 0.00699,-0.2790649 -0.025852,-0.3910073 -0.047967,-0.6352214 0.5021404,-0.944966 0.08219,-0.046277 0.1617853,0.076748 0.2292453,0.1281305 0.235776,0.179582 0.526765,0.5134226 0.708548,0.7076522 0.545909,0.5969115 0.245363,0.2668534 0.757259,0.83185 0.09647,0.1064828 0.184046,0.2188487 0.289519,0.3193842 0.04551,0.04338 0.193621,0.0551 0.161164,0.110188 -0.481763,0.8175393 -0.451783,0.360098 -0.476991,0.13352 -0.02999,-0.1351 -0.105228,-0.4388552 -0.105384,-0.5808019 -3.78e-4,-0.3432967 0.21855,-0.6663119 0.629273,-0.8781082 0.134768,-0.069497 0.319898,0.02358 0.435909,0.098214 0.240338,0.1546089 0.398354,0.3777296 0.597529,0.5665938 0.18497,0.386612 0.435152,0.7531265 0.554901,1.1598386 0.313161,1.063918 0.336101,2.008713 -0.04817,3.111822 -0.161383,0.463278 -0.395062,0.924399 -0.729031,1.332718 -0.34946,0.427256 -0.763689,0.850028 -1.28983,1.135596 -0.334297,0.181439 -0.771255,0.128247 -1.156885,0.192368 C 10.107712,15.695348 9.6966739,15.573561 9.4544907,15.313121 9.140509,14.975469 8.960695,14.557535 8.8146995,14.144684 8.4980947,13.249629 8.4780747,12.117435 8.4103375,11.18333 c 0,0 0.2648431,-0.253368 0.2648431,-0.253368 l 0,0 c 0.067465,0.975704 0.064365,1.995045 0.4224746,2.92492 0.1526876,0.396462 0.3505824,0.791986 0.6644423,1.112668 0.2416515,0.246905 0.6379235,0.362605 0.9568845,0.543909 0.368303,-0.05622 0.759003,-0.03929 1.104907,-0.168639 0.866868,-0.32415 1.305892,-1.2606 1.528438,-1.879679 0.389685,-1.084011 0.373764,-2.018025 0.01516,-3.053134 C 13.234438,10.025966 12.95818,9.6922743 12.753529,9.3334056 12.545171,9.1704861 12.371756,8.9733642 12.128459,8.8446477 c -0.108099,-0.057193 -0.342405,0.048012 -0.39202,-0.049335 -0.05178,-0.1016453 0.08031,-0.2564418 0.210316,-0.3071659 0.09562,-0.03731 -0.05609,0.1651767 -0.05988,0.2484686 -0.0078,0.1727233 0.06756,0.4093812 0.110169,0.5721404 0.09966,0.348917 0.189564,0.387245 -0.404804,0.7723732 -0.06421,0.0416 -0.0916,-0.09836 -0.134767,-0.1491342 C 11.122574,9.5381063 10.804438,9.1338218 10.43247,8.7623558 10.166112,8.5075546 10.002732,8.3206835 9.6910194,8.1173086 9.6411363,8.0847647 9.5043426,8.0951834 9.5216335,8.0420853 9.5737469,7.8820577 9.7114782,7.7379089 9.8546984,7.614694 9.977682,7.50889 9.5628857,8.250838 9.8289413,8.0336464 9.829014,8.0830478 9.8391563,8.5265493 9.8039593,8.5833609 9.7031389,8.7461072 9.4469681,9.2633842 9.0535637,9.2937214 8.9055433,9.305141 8.7020333,9.2289638 8.5769917,9.1913395 8.5018707,9.1578327 8.4244343,9.127269 8.3516256,9.0908246 7.8913931,8.8604224 8.3778076,9.0870181 8.0159207,8.8960581 7.9954497,8.8852512 7.9363007,8.8899305 7.9487987,8.8712692 8.0613292,8.7035119 8.2096161,8.5512747 8.3506555,8.3970351 8.3683485,8.3776831 8.3309595,8.4417564 8.3211035,8.4641193 8.3010385,8.5560537 8.2581885,8.803127 8.2070884,8.8745706 8.0543677,9.0880978 7.8781017,9.2911729 7.7053398,9.4953181 c -0.037795,0.044666 -0.081435,0.086612 -0.129169,0.1247832 -0.048045,0.03841 -0.1044537,0.06917 -0.1566776,0.103752 -0.05431,0.02755 -0.1085324,0.05521 -0.1629356,0.08263 -0.049494,0.02495 -0.1699335,0.1179 -0.1487614,0.07443 0.069962,-0.143633 0.2076563,-0.262743 0.3057251,-0.3966955 0.044626,-0.060951 -0.103753,0.1154445 -0.1443612,0.1780275 -0.010558,0.01628 -0.018339,0.03351 -0.027507,0.05025 0,0 -0.4950793,0.4629957 -0.4950793,0.4629957 z"
       inkscape:connector-curvature="0" />
  </g>
</svg>
